<?xml version="1.0" encoding="UTF-8"?>
<svg width="34px" height="34px" viewBox="0 0 34 34" version="1.1" xmlns="http://www.w3.org/2000/svg" xmlns:xlink="http://www.w3.org/1999/xlink">
    <defs></defs>
    <g id="desktop" stroke="none" stroke-width="1" fill="none" fill-rule="evenodd" fill-opacity="0.2">
        <g id="06-rwd-mobile" transform="translate(-229.000000, -4268.000000)" fill="#0C1751">
            <g id="form" transform="translate(0.000000, 3885.000000)">
                <g id="social" transform="translate(0.000000, 360.000000)">
                    <g id="icons" transform="translate(55.000000, 23.000000)">
                        <path d="M191,34 C181.611418,34 174,26.3895814 174,17 C174,7.61241769 181.611418,0 191,0 C200.388582,0 208,7.61241769 208,17 C208,26.3895814 200.388582,34 191,34 Z M186.89893,14.1216545 L186.89893,16.6644579 L188.656103,16.6644579 L188.656103,25.5002999 L191.950553,25.5002999 L191.950553,16.6644579 L194.558325,16.6644579 L194.753234,14.1216545 L191.950553,14.1216545 L191.950553,12.1365887 C191.950553,11.4529104 192.563264,11.2080256 193.246943,11.2080256 C193.929621,11.2080256 194.662277,11.4199259 194.662277,11.4199259 L195.10207,8.81615122 C195.10207,8.81615122 194.167509,8.49930033 191.950553,8.49930033 C190.590193,8.49930033 189.798565,9.01805621 189.222836,9.77969779 C188.675094,10.4983596 188.656103,11.6608126 188.656103,12.4134584 L188.656103,14.1216545 L186.89893,14.1216545 Z" id="social-facebook"></path>
                    </g>
                </g>
            </g>
        </g>
    </g>
</svg>