<?xml version="1.0" encoding="UTF-8"?>
<svg width="34px" height="33px" viewBox="0 0 34 33" version="1.1" xmlns="http://www.w3.org/2000/svg" xmlns:xlink="http://www.w3.org/1999/xlink">
    <defs></defs>
    <g id="desktop" stroke="none" stroke-width="1" fill="none" fill-rule="evenodd">
        <g id="06-rwd-mobile" transform="translate(-55.000000, -4268.000000)">
            <g id="form" transform="translate(0.000000, 3885.000000)">
                <g id="social" transform="translate(0.000000, 360.000000)">
                    <g id="icons" transform="translate(55.000000, 23.000000)">
                        <g id="social-git">
                            <rect id="space" x="0" y="0" width="34" height="34"></rect>
                            <path d="M16.9990005,0 C7.61197013,0 0,7.57410014 0,16.91864 C0,24.3922826 4.87042154,30.7340373 11.6268446,32.970958 C12.4763948,33.1261202 12.7862308,32.6039399 12.7862308,32.1563569 C12.7862308,31.7535321 12.7722382,30.6902737 12.763243,29.2788951 C8.03474631,30.3003791 7.03727438,27.0101462 7.03727438,27.0101462 C6.26368393,25.0557001 5.14927391,24.5355092 5.14927391,24.5355092 C3.60609089,23.4861755 5.26621201,23.5070627 5.26621201,23.5070627 C6.97230878,23.6264182 7.86983362,25.2506474 7.86983362,25.2506474 C9.3870304,27.8356883 11.8487271,27.0897165 12.8172144,26.6560583 C12.9721324,25.562961 13.4109001,24.8179838 13.896643,24.3942718 C10.122641,23.967576 6.15274267,22.5164122 6.15274267,16.0334201 C6.15274267,14.186394 6.81639132,12.6765471 7.90281616,11.4939332 C7.72890823,11.0652481 7.14521724,9.34553446 8.06972779,7.01611325 C8.06972779,7.01611325 9.49697219,6.56156778 12.7452525,8.75074629 C14.100535,8.37577115 15.5547651,8.18778626 17.0009995,8.18181848 C18.4442354,8.18778626 19.8984655,8.37577115 21.2567464,8.75074629 C24.5020283,6.56156778 25.9272738,7.01611325 25.9272738,7.01611325 C26.8547828,9.34553446 26.2710918,11.0652481 26.0961844,11.4939332 C27.1856076,12.6765471 27.8442589,14.186394 27.8442589,16.0334201 C27.8442589,22.5323263 23.8693633,23.9626028 20.0813687,24.3813417 C20.6920454,24.9035219 21.2357575,25.9369415 21.2357575,27.5144231 C21.2357575,29.7762096 21.2147687,31.6003592 21.2147687,32.1563569 C21.2147687,32.6079185 21.5216062,33.1340772 22.3841496,32.9689688 C29.1335763,30.7280696 34,24.3902933 34,16.91864 C34,7.57410014 26.3880299,0 16.9990005,0" id="git" fill-opacity="0.2" fill="#0C1751"></path>
                        </g>
                    </g>
                </g>
            </g>
        </g>
    </g>
</svg>