<?xml version="1.0" encoding="UTF-8"?>
<svg width="34px" height="34px" viewBox="0 0 34 34" version="1.1" xmlns="http://www.w3.org/2000/svg" xmlns:xlink="http://www.w3.org/1999/xlink">
    <defs></defs>
    <g id="desktop" stroke="none" stroke-width="1" fill="none" fill-rule="evenodd" fill-opacity="0.2">
        <g id="06-rwd-mobile" transform="translate(-171.000000, -4268.000000)" fill="#0C1751">
            <g id="form" transform="translate(0.000000, 3885.000000)">
                <g id="social" transform="translate(0.000000, 360.000000)">
                    <g id="icons" transform="translate(55.000000, 23.000000)">
                        <path d="M133,34 C123.610419,34 116,26.3895814 116,17 C116,7.61241769 123.610419,0 133,0 C142.388582,0 150,7.61241769 150,17 C150,26.3895814 142.388582,34 133,34 Z M141.528687,12.5466957 C140.902981,12.8245649 140.228298,13.0124765 139.522631,13.096437 C140.244291,12.6646402 140.79803,11.9799624 141.057908,11.1643462 C140.383226,11.5651576 139.635577,11.8550212 138.838952,12.0109478 C138.203251,11.3322672 137.294679,10.9084666 136.289152,10.9084666 C134.36106,10.9084666 132.796796,12.4727305 132.796796,14.4018227 C132.796796,14.6756938 132.825782,14.9415687 132.886753,15.1974483 C129.98312,15.0515169 127.409331,13.6621707 125.685142,11.547166 C125.384284,12.0649224 125.212365,12.6646402 125.212365,13.3043391 C125.212365,14.515769 125.829075,15.5852658 126.766633,16.2119708 C126.193903,16.1949788 125.655156,16.0360536 125.183378,15.7761759 L125.183378,15.8191557 C125.183378,17.5123589 126.387812,18.9246943 127.987059,19.2445437 C127.693197,19.3265052 127.385342,19.3674859 127.065493,19.3674859 C126.840599,19.3674859 126.620702,19.3464958 126.408802,19.3055151 C126.852593,20.6928622 128.142986,21.7043862 129.672266,21.7303739 C128.475829,22.6679327 126.969538,23.2266698 125.333308,23.2266698 C125.05144,23.2266698 124.772572,23.2106773 124.4997,23.1786924 C126.045972,24.1682267 127.882108,24.7479539 129.85518,24.7479539 C136.282155,24.7479539 139.795502,19.4244591 139.795502,14.8076317 C139.795502,14.6557032 139.792504,14.5037747 139.785507,14.3558443 C140.468186,13.8620767 141.061906,13.2473659 141.528687,12.5466957 Z" id="social-twitter"></path>
                    </g>
                </g>
            </g>
        </g>
    </g>
</svg>