<?xml version="1.0" encoding="UTF-8"?>
<svg width="34px" height="34px" viewBox="0 0 34 34" version="1.1" xmlns="http://www.w3.org/2000/svg" xmlns:xlink="http://www.w3.org/1999/xlink">
    <defs></defs>
    <g id="desktop" stroke="none" stroke-width="1" fill="none" fill-rule="evenodd" fill-opacity="0.2">
        <g id="06-rwd-mobile" transform="translate(-113.000000, -4268.000000)" fill="#0C1751">
            <g id="form" transform="translate(0.000000, 3885.000000)">
                <g id="social" transform="translate(0.000000, 360.000000)">
                    <g id="icons" transform="translate(55.000000, 23.000000)">
                        <path d="M75,34 C65.6104186,34 58,26.3885818 58,17 C58,7.61141816 65.6104186,0 75,0 C84.3905809,0 92,7.61141816 92,17 C92,26.3885818 84.3905809,34 75,34 Z M83.5,24.110154 L83.5,18.2139287 C83.5,14.9294744 81.6498706,13.4041921 79.2949788,13.4041921 C77.3968721,13.4041921 76.2074318,14.4427034 75.9875353,15.170361 L75.9875353,13.5061442 L72.2652869,13.5061442 C72.3132643,14.3897284 72.2652869,24.110154 72.2652869,24.110154 L75.9875353,24.110154 L75.9875353,18.3718544 C75.9875353,18.0520049 75.9725423,17.7341545 76.0684972,17.5052622 C76.3243768,16.8675623 76.8741181,16.2058737 77.8626529,16.2058737 C79.1550447,16.2058737 79.7427681,17.1864123 79.7427681,18.6227364 L79.7427681,24.110154 L83.5,24.110154 Z M68.5010583,12.1787688 C69.7464722,12.1787688 70.5221072,11.3661512 70.5221072,10.3386348 C70.4981185,9.29212723 69.7464722,8.50049976 68.5240475,8.50049976 C67.3006232,8.50049976 66.5,9.29412629 66.5,10.3416333 C66.5,11.3681503 67.2776341,12.1787688 68.4770696,12.1787688 L68.5010583,12.1787688 Z M66.9287982,24.110154 L70.2422389,24.110154 L70.2422389,13.5061442 L66.9287982,13.5061442 L66.9287982,24.110154 Z" id="social-linkedin"></path>
                    </g>
                </g>
            </g>
        </g>
    </g>
</svg>