<?xml version="1.0" encoding="UTF-8"?>
<svg width="69px" height="76px" viewBox="0 0 69 76" version="1.1" xmlns="http://www.w3.org/2000/svg" xmlns:xlink="http://www.w3.org/1999/xlink">
    <!-- Generator: Sketch 53.2 (72643) - https://sketchapp.com -->
    <title>webpack-logo</title>
    <desc>Created with Sketch.</desc>
    <g id="desktop" stroke="none" stroke-width="1" fill="none" fill-rule="evenodd">
        <g id="02-03-crop-skills" transform="translate(-262.000000, -881.000000)" fill="#FFFFFF">
            <g id="about-skills" transform="translate(224.000000, 174.000000)">
                <g id="balls">
                    <g id="webpack" transform="translate(0.000000, 672.000000)">
                        <path d="M74.1046512,47.9299897 L94.6608075,58.913087 L94.8259337,59 L106.197674,52.6078897 L74.1046512,35 L74.1046512,47.9299897 Z M38.8023256,52.6184202 L50.1687496,59 L50.3335813,58.912824 L70.8953488,47.9377226 L70.8953488,35 L38.8023256,52.6184202 Z M53.244186,60.739997 L72.5074807,71.8 L91.755814,60.739997 L72.5074807,50.2 L53.244186,60.739997 Z M38,91 L49.2325581,84.5778103 L49.2325581,61.4224012 L38,55 L38,91 Z M95.7674419,61.4224012 L95.7674419,84.5778103 L107,91 L107,55 L95.7674419,61.4224012 Z M74.1046512,73.9775985 L74.1046512,94.2 L93.3604651,83.7408419 L93.3604651,63 L74.1046512,73.9775985 Z M51.6395349,83.7259986 L70.8953488,94.2 L70.8953488,73.9775985 L51.6395349,63 L51.6395349,83.7259986 Z M74.1046512,97.5119217 L74.1046512,111 L105.395349,93.6561169 L93.6070437,87 L74.1046512,97.5119217 Z M39.6046512,93.6601933 L70.8953488,111 L70.8953488,97.5036612 L51.3929563,87 L39.6046512,93.6601933 Z" id="webpack-logo"></path>
                    </g>
                </g>
            </g>
        </g>
    </g>
</svg>