<?xml version="1.0" encoding="UTF-8"?>
<svg width="88px" height="66px" viewBox="0 0 88 66" version="1.1" xmlns="http://www.w3.org/2000/svg" xmlns:xlink="http://www.w3.org/1999/xlink">
    <!-- Generator: Sketch 47 (45396) - http://www.bohemiancoding.com/sketch -->
    <title>logo-sass</title>
    <desc>Created with Sketch.</desc>
    <defs></defs>
    <g id="desktop" stroke="none" stroke-width="1" fill="none" fill-rule="evenodd">
        <g id="01-overview" transform="translate(-860.000000, -2055.000000)" fill="#FFFFFF">
            <g id="about-skills" transform="translate(224.000000, 1920.000000)">
                <g id="balls">
                    <g id="sass" transform="translate(592.000000, 80.000000)">
                        <path d="M93.6631676,107.64642 C95.4435032,107.383653 98.1882394,104.494464 97.7029201,102.969163 C96.416637,104.53951 95.1765153,106.068565 93.6631676,107.64642 M109.632541,100.268917 C109.632541,100.011155 109.64876,99.7533929 109.628799,99.4981334 C109.593866,99.0213985 109.412963,98.8412153 109.001252,99.230361 C107.568999,100.582987 106.68195,102.250933 106.195383,104.146611 C106.154212,104.308025 106.081851,104.500721 106.245288,104.625848 C106.436171,104.772247 106.622065,104.627099 106.80172,104.554526 C108.588294,103.823782 109.641275,102.243425 109.632541,100.268917 M74.5373471,103.866326 C74.5435851,104.501972 74.553566,105.12886 74.693298,105.746988 C74.8417633,106.400152 74.7793829,107.327345 75.5566423,107.444965 C76.2877402,107.556328 76.5197951,106.666674 76.8067448,106.107355 C78.0506093,103.689896 78.9364106,101.121034 79.8783541,98.5796993 C80.5246147,96.8404306 81.1097425,95.0761363 81.4727963,93.2505298 C81.5501479,92.8651378 81.6811467,92.4109259 81.3168454,92.1256358 C80.9388203,91.8265817 80.5034054,92.0055136 80.1054186,92.1856969 C79.6038805,92.4109259 79.1547418,92.7137339 78.7891929,93.1216487 C76.05319,96.1797587 74.693298,99.7846748 74.5373471,103.866326 M63.9039898,105.052532 C63.9576369,104.38185 63.8204001,103.53599 63.6282685,102.696386 C63.5484217,102.343527 63.4024516,102.194626 63.035655,102.416101 C60.001474,104.251718 56.9722834,106.11236 54.6118103,108.820113 C53.3080606,110.315384 52.4634305,112.058407 52.6118958,114.141775 C52.6879998,115.229131 53.3018226,115.878542 54.3847458,115.979895 C54.8126751,116.019935 55.235614,115.979895 55.6598005,115.887301 C60.2747,114.88378 63.9089802,110.199016 63.9039898,105.052532 M85.2517989,93.485769 C86.4220546,93.6747111 86.9685066,94.3716699 86.6790617,95.5353533 C85.9754112,98.3657317 85.1295334,101.163577 84.5955574,104.03775 C84.4658063,104.743468 84.4321209,105.447934 84.5568816,106.213713 C84.9611064,106.126124 85.0234868,105.78828 85.1557331,105.535523 C87.4949969,101.040952 89.4038361,96.3474292 91.4773595,91.7302337 C92.2633521,89.9797034 92.8572132,88.2416859 93.2764093,86.3572696 C93.3787131,85.8942987 93.6644152,85.6065061 94.109811,85.4676148 C95.272581,85.1047458 96.6287302,84.9583469 97.8276808,85.1572992 C98.8931375,85.3337286 99.1975537,85.8454991 98.8220239,86.8452658 C98.0510026,88.9023578 97.7815194,90.9907316 98.1795061,93.1679458 C98.3379523,94.02757 98.6673206,94.8071127 99.0453456,95.5791479 C99.2399724,95.9732987 99.4420847,96.0621391 99.6853682,95.6229424 C101.61916,92.1281383 103.913509,88.8135175 104.910348,84.8569938 C105.355744,82.7511022 105.505456,82.6572568 107.873415,82.5071041 C108.443572,82.4870837 109.019966,82.4670634 109.583885,82.5346321 C110.710474,82.667267 111.04109,83.172781 110.651837,84.2263525 C109.90452,86.2546652 109.601351,88.3067521 109.9931,90.4614434 C110.243869,91.8478533 110.94752,93.0227982 111.550114,94.2502965 C111.740998,94.638191 112.0267,94.5956477 112.339849,94.4492488 C114.359726,93.5070406 116.496877,92.9877625 118.70639,92.8989222 C123.554592,92.7074775 127.871313,93.8886787 130.687163,98.229343 C132.096959,100.404055 132.517403,102.79899 131.221139,105.232715 C130.510003,106.570326 129.387156,107.480001 127.971122,108.01054 C127.646744,108.131914 127.259986,108.242026 127.056626,107.85288 C126.854513,107.467488 127.2263,107.304822 127.470831,107.123388 C130.843114,104.619592 130.835628,100.904564 127.457107,98.3407063 C125.575716,96.9130044 123.41486,96.2335634 121.105539,96.0195958 C118.532972,95.7806028 115.975377,95.8268998 113.495134,96.7178059 C112.992348,96.8979891 112.807702,97.1069516 113.002329,97.6537577 C114.433335,101.65783 112.666723,104.046509 109.557685,106.087334 C108.602018,106.715473 107.537809,107.157172 106.433676,107.471242 C104.149307,108.11815 102.770701,106.865626 103.187402,104.520741 C103.576655,102.328512 104.75814,100.555459 106.205364,98.9338095 C106.584637,98.5083768 106.972643,98.0754365 107.416791,97.7225777 C107.76113,97.4510515 108.141651,97.2721196 108.177831,96.9580502 C108.205279,96.7115495 106.981376,95.7155366 105.727531,90.4564383 C105.323306,91.1971916 104.914091,91.9391962 104.511113,92.6849546 C103.491818,94.5743761 100.885566,98.697319 100.856871,98.9538298 C100.826929,99.2090894 100.875586,99.4731079 101.005337,99.772162 C101.344686,100.557961 101.541808,101.391309 101.627893,102.25844 C101.946033,105.500488 100.45639,107.692717 97.6854536,109.132932 C95.9924505,110.012576 94.2058768,110.571895 92.2708378,110.534357 C91.494826,110.519342 90.751252,110.361681 90.3906935,109.589646 C90.0500967,108.861405 90.332056,108.176959 90.8024039,107.595118 C92.2558665,105.794537 93.7367764,104.013976 95.1927342,102.215897 C96.0236406,101.188603 96.4016657,100.719375 96.4054085,100.151298 C96.4091513,99.6733115 94.9132701,97.8514587 93.9401364,93.0640902 C93.4136461,94.3091063 92.895889,95.5391072 92.3731416,96.7653542 C90.6215009,100.877036 88.5704344,104.838564 86.3871216,108.732524 C85.909288,109.584641 85.3229125,110.364184 84.5755957,110.99983 C82.9724203,112.364968 81.2569602,111.856952 80.6967845,109.834895 C80.364921,108.632423 80.2513887,107.40117 80.4210633,106.154903 C80.4235585,106.134883 80.4622343,105.584323 80.3911207,105.466703 C79.5415001,107.283551 78.8291163,109.122921 77.8222972,110.817144 C77.0313142,112.148498 76.0506948,113.126993 74.3327395,112.954318 C73.4868617,112.869231 72.793192,112.553911 72.2804254,111.873218 C70.9317619,110.082647 70.3079582,108.019299 70.0684176,105.823316 C69.8139057,103.483436 70.2380922,101.209874 70.8132392,98.9563324 C70.8731243,98.7173393 71.0315705,98.490859 70.9180382,98.1104722 C69.5119847,98.9263018 68.1396167,99.7296188 66.759763,100.51792 C66.3380717,100.759416 66.4790513,101.062224 66.5900884,101.401319 C68.1970066,106.298799 67.5894218,110.914744 64.6113831,115.11026 C62.4243275,118.193396 59.4026225,120.109094 55.6672861,120.829827 C55.4439644,120.87237 55.2281283,120.942441 55.0097971,121 L51.9257117,121 C51.8471125,120.964964 51.7735036,120.914913 51.6911615,120.896144 C48.6494949,120.204191 47.1785658,118.3448 47.0825,115.231634 C46.977701,111.869465 48.4785726,109.288089 50.8552646,107.113378 C53.7247615,104.488208 57.0171973,102.492428 60.4593459,100.730637 C61.3601184,100.268917 61.3800801,100.187585 60.5366976,99.574461 C58.8985891,98.380747 57.2480046,97.2032996 55.5861916,96.0383649 C53.1059483,94.2978448 50.6693711,92.498515 48.5359626,90.3325623 C46.4998674,88.2654601 44.966558,85.8792835 44.2179936,83.0363923 C42.8481207,76.6223695 48.2415273,72.1127834 51.8209127,68.7631269 C54.9262074,65.8576722 58.4332316,63.5165413 62.1723108,61.5332744 C67.2999769,58.8117567 72.589832,56.4906462 78.3537779,55.4520901 C79.1909225,55.3006861 86.1513238,54.0844492 92.5028927,56.4118161 C94.9619268,57.4240955 97.1489825,58.7792236 98.434018,61.2179537 C99.8500523,63.9056871 99.8350811,66.7348142 98.9667463,69.5614388 C97.2837241,75.0395098 93.7143195,79.0085462 88.8199559,81.7938787 C85.0659054,83.9298009 80.9562868,84.949588 76.6645176,85.3137083 C73.9547145,85.5426912 71.2973108,85.4475944 68.7596775,84.3902692 C67.3199386,83.7896584 66.0635981,82.9000036 65.1341306,81.6049366 C64.830962,81.1832578 64.5914214,80.7277946 64.4679083,80.2222805 C64.3905566,79.9094624 64.3656045,79.5728701 64.69123,79.3764203 C65.0093699,79.1837243 65.2351868,79.4239686 65.4310611,79.6266748 C67.719173,81.9903285 70.6435646,82.5146117 73.7101834,82.2906339 C79.1010947,81.8989856 84.0129248,80.1021583 88.3184177,76.7712709 C90.6077772,74.9994691 92.4929119,72.8798135 93.7505001,70.2383772 C94.2882188,69.1134832 94.5888922,67.9222718 94.697434,66.6910197 C94.8933084,64.4537444 93.7080814,62.578087 91.4985688,61.6133559 C88.8112226,60.4396623 85.979154,60.1956641 83.1059143,60.4634364 C73.3184347,61.3731115 65.0455505,65.8176315 57.4101936,71.6860995 C55.4314883,73.2076468 53.7646849,75.0557763 52.4796494,77.2279854 C49.9831871,81.4497788 50.4647635,85.6115111 53.8545127,89.165125 C55.8569224,91.2660116 58.2186431,92.9352091 60.4730696,94.7307851 C61.7481243,95.7455671 63.0381503,96.7428313 64.144778,97.9465555 C64.5040889,98.3369525 64.7985242,98.3482139 65.2514057,98.0967082 C67.7678297,96.6890266 70.3004726,95.308873 72.8318679,93.9262169 C73.193674,93.7285159 73.4469383,93.4344668 73.7076882,93.1254025 C75.1374462,91.4311795 76.7019458,89.8933656 78.7654884,88.9774342 C79.2071413,88.7809844 79.6662608,88.6108113 80.1341136,88.4969455 C82.2687698,87.9839238 83.7347084,89.0387465 83.9580301,91.2297247 C83.9842298,91.4862355 83.9792394,91.7452489 83.9817346,92.0030111 C83.9817346,92.0030111 83.9879727,93.4419745 83.8357646,94.2578041 C84.2686843,93.2968268 85.2517989,93.485769 85.2517989,93.485769" id="logo-sass"></path>
                    </g>
                </g>
            </g>
        </g>
    </g>
</svg>