<?xml version="1.0" encoding="UTF-8"?>
<svg width="144px" height="144px" viewBox="0 0 144 144" version="1.1" xmlns="http://www.w3.org/2000/svg" xmlns:xlink="http://www.w3.org/1999/xlink">
    <!-- Generator: Sketch 47 (45396) - http://www.bohemiancoding.com/sketch -->
    <title>logo-javascript</title>
    <desc>Created with Sketch.</desc>
    <defs></defs>
    <g id="desktop" stroke="none" stroke-width="1" fill="none" fill-rule="evenodd" fill-opacity="0.8">
        <g id="01-overview" transform="translate(-744.000000, -2248.000000)" fill="#000000">
            <g id="about-skills" transform="translate(224.000000, 1920.000000)">
                <g id="balls">
                    <g id="javascript" transform="translate(448.000000, 256.000000)">
                        <path d="M202.221273,186.367546 C202.435562,185.112988 202.546713,183.787531 202.546713,182.392774 C202.546713,170.59985 196.308305,165.358973 185.228443,160.217967 L181.969984,158.706102 C176.384148,156.085187 173.963201,154.371201 173.963201,150.137599 C173.963201,146.711055 176.384148,144.090379 180.201609,144.090379 C183.92572,144.090379 186.345786,145.803651 188.580472,150.137599 L198.729252,143.082152 C194.4468,134.917416 188.488003,131.792388 180.201389,131.792388 C168.562525,131.792388 161.114083,139.856539 161.114083,150.440305 C161.114083,161.931477 167.352492,167.374475 176.756889,171.707946 L180.014688,173.221003 C185.973705,176.042371 189.511555,177.756119 189.511555,182.59442 C189.511555,186.626376 186.067496,189.549759 180.6666,189.549759 C174.242592,189.549759 170.611391,185.921332 167.817482,180.981732 L157.204152,187.634365 L157.204373,187.634365 C161.021173,195.799339 168.842356,202.048443 180.946211,202.048443 C183.287304,202.048443 185.515252,201.799877 187.589161,201.310903 C175.48968,210.52759 160.383915,216 144,216 C104.235498,216 72,183.764502 72,144 C72,104.235498 104.235498,72 144,72 C183.764502,72 216,104.235498 216,144 C216,159.837025 210.886827,174.479805 202.221273,186.367546 Z M110.865271,189.182681 L110.865052,189.181492 C113.925905,196.217786 119.955929,202.048443 130.343968,202.048443 C141.84624,202.048443 149.730104,195.41387 149.730104,180.837823 L149.730104,132.788927 L136.744452,132.788927 L136.744452,180.638865 C136.744452,187.674921 134.054279,189.483853 129.787289,189.483853 C125.335837,189.483853 123.480023,186.16716 121.439966,182.247174 L110.865271,189.182681 Z" id="logo-javascript"></path>
                    </g>
                </g>
            </g>
        </g>
    </g>
</svg>