<?xml version="1.0" encoding="UTF-8"?>
<svg width="353px" height="353px" viewBox="0 0 353 353" version="1.1" xmlns="http://www.w3.org/2000/svg" xmlns:xlink="http://www.w3.org/1999/xlink" style="filter: drop-shadow(rgba(5, 14, 26, 0.5) -20px 20px 30px);">
    <!-- Generator: Sketch 53.2 (72643) - https://sketchapp.com -->
    <title>git</title>
    <desc>Created with Sketch.</desc>
    <defs>
        <radialGradient cx="71.5647563%" cy="23.6447992%" fx="71.5647563%" fy="23.6447992%" r="82.3433284%" id="radialGradient-4">
            <stop stop-color="#F3008C" offset="0%"></stop>
            <stop stop-color="#8A003E" offset="100%"></stop>
        </radialGradient>
    </defs>
    <g id="git" stroke="none" stroke-width="1" fill="none" fill-rule="evenodd">
        <g transform="translate(87.000000, 90.000000)">
                <g id="color-/-07-burgundy" fill="url(#radialGradient-4)" fill-rule="evenodd">
                    <circle id="shape" cx="88" cy="88" r="88" />
                </g>
            <path d="M126.491108,84.4361737 L91.5618926,49.5089205 C89.5517927,47.4970265 86.289111,47.4970265 84.2763778,49.5089205 L77.0233405,56.762097 L86.2241558,65.9630889 C88.3624105,65.240668 90.8140301,65.7252079 92.518665,67.4298756 C94.2311999,69.1450767 94.7122194,71.6178104 93.9722569,73.7631284 L102.839518,82.6305602 C104.984795,81.8914613 107.460115,82.3698567 109.173527,84.0859356 C111.568092,86.4796682 111.568092,90.3594988 109.173527,92.7549869 C106.778085,95.1504751 102.898329,95.1504751 100.502009,92.7549869 C98.7008193,90.9520068 98.2557885,88.3063486 99.1677945,86.0872962 L90.8982963,77.8176392 L90.8974185,99.5798021 C91.4811375,99.8694727 92.0323788,100.254822 92.518665,100.739362 C94.9132294,103.133095 94.9132294,107.012925 92.518665,109.410169 C90.1232229,111.80478 86.2417112,111.80478 83.8497801,109.410169 C81.4552158,107.012925 81.4552158,103.133095 83.8497801,100.739362 C84.4413991,100.14861 85.1260619,99.7018148 85.8563689,99.4016107 L85.8563689,77.4366784 C85.1260619,77.1382299 84.4422768,76.6940683 83.8497801,76.0989269 C82.0354236,74.2871689 81.5991705,71.6248327 82.528732,69.3970023 L73.4595827,60.3259233 L49.5095499,84.2746604 C47.4968167,86.28831 47.4968167,89.5510544 49.5095499,91.5629485 L84.4387657,126.491079 C86.4497434,128.502974 89.7115474,128.502974 91.7251583,126.491079 L126.491108,91.7253396 C128.502964,89.7125678 128.502964,86.4480678 126.491108,84.4361737" id="logo-git" fill="#FFFFFF"></path>
        </g>
    </g>
</svg>
