<?xml version="1.0" encoding="UTF-8"?>
<svg width="353px" height="353px" viewBox="0 0 353 353" version="1.1" xmlns="http://www.w3.org/2000/svg" xmlns:xlink="http://www.w3.org/1999/xlink">
    <!-- Generator: Sketch 53.2 (72643) - https://sketchapp.com -->
    <title>gulp</title>
    <desc>Created with Sketch.</desc>
    <defs>
        <radialGradient cx="70.3725018%" cy="25.0803879%" fx="70.3725018%" fy="25.0803879%" r="78.7431358%" id="radialGradient-4">
            <stop stop-color="#FF0051" offset="0%"></stop>
            <stop stop-color="#940000" offset="100%"></stop>
        </radialGradient>
    </defs>
    <g id="gulp" stroke="none" stroke-width="1" fill="none" fill-rule="evenodd">
        <g transform="translate(87.000000, 90.000000)">
                <g id="color-/-06-red" fill="url(#radialGradient-4)" fill-rule="evenodd">
                    <circle id="shape" cx="88" cy="88" r="88" />
                </g>
            <path d="M147.65181,88.1549649 C147.418486,87.7553626 147.070296,87.5520561 146.607239,87.5520561 C146.373916,87.5520561 146.129824,87.6116459 145.878552,87.7343309 C145.627281,87.8570158 145.350882,88.0147536 145.056536,88.2110495 L145.056536,88.2110495 C142.231529,90.6752642 139.85163,92.7188448 137.920431,94.3382861 C135.989267,95.9612326 134.395453,97.2546824 133.142722,98.2186356 C131.889919,99.1825887 130.913551,99.8591085 130.217206,100.248195 C129.52079,100.637247 128.99312,100.833577 128.634161,100.833577 C128.189088,100.833577 127.869578,100.745945 127.68292,100.560165 C127.496261,100.374385 127.399378,100.139531 127.399378,99.8450874 C127.420879,99.6277247 127.700867,99.2070906 128.239306,98.5831851 C128.777745,97.9627148 129.441819,97.2056085 130.231529,96.3152312 C131.024864,95.4249241 131.871971,94.436434 132.780138,93.349796 C133.684714,92.2666281 134.528268,91.1484776 135.310799,90.0022497 C136.08974,88.8560218 136.739456,87.7168044 137.256357,86.5810924 C137.773293,85.4453803 138.031708,84.379774 138.031708,83.3772627 C138.031708,82.6201214 137.862997,81.9576227 137.525576,81.3827561 C137.188154,80.8113948 136.750224,80.3346762 136.211786,79.9561055 C135.673347,79.5775348 135.063117,79.2936068 134.377505,79.0973109 C133.691894,78.901015 133.002692,78.802867 132.306312,78.802867 C131.294047,78.802867 130.281783,79.0096788 129.269518,79.4233023 C128.257254,79.8404311 127.266527,80.3767396 126.297338,81.035733 C125.324559,81.6947264 124.387676,82.4343413 123.479509,83.2510725 C122.571343,84.071309 121.727789,84.8915455 120.948848,85.7222978 C121.009871,85.5750759 121.078038,85.3437271 121.153455,85.0282515 C121.225247,84.712776 121.293413,84.3762687 121.358062,84.022235 C121.419049,83.6682013 121.472893,83.331694 121.515968,83.0162185 C121.559079,82.7007429 121.58058,82.4693942 121.58058,82.3221722 C121.58058,81.5895679 121.390368,81.035733 121.009871,80.6571623 C120.629339,80.2785916 120.019109,80.0893063 119.175555,80.0893063 C118.629973,80.0893063 118.116626,80.3732343 117.642836,80.9481009 C117.16901,81.5194622 116.741849,82.195982 116.361352,82.9776604 C115.980856,83.7593387 115.643434,84.5515329 115.349088,85.3577482 C115.054741,86.1639636 114.821418,86.7879042 114.652707,87.2260647 C114.367478,88.2172538 114.046533,89.230982 113.691451,90.265847 C113.507413,90.338792 113.343548,90.447561 113.202513,90.5911374 C112.61023,91.1765198 111.942567,91.8144815 111.192342,92.511998 C110.442118,93.2060793 109.655998,93.9001256 108.833981,94.597642 C108.011965,95.2916883 107.18277,95.9647028 106.349985,96.6097102 C105.5172,97.2581877 104.716722,97.8330543 103.94496,98.3307696 C103.176787,98.8320603 102.458869,99.2351679 101.794795,99.5400926 C101.127131,99.8485927 100.574334,99.9993199 100.132815,99.9993199 C99.7738558,99.9993199 99.5297996,99.8906561 99.4041639,99.6698232 C99.2785283,99.4489903 99.2138797,99.1545114 99.2138797,98.7899969 C99.2138797,98.2046144 99.3215675,97.5386104 99.544122,96.7954902 C99.7666766,96.0488647 99.9928208,95.3968819 100.226144,94.8360364 L100.22618,94.8360364 C100.750224,93.5180496 101.378403,91.9617035 102.114269,90.166998 C102.842991,88.3757628 103.621897,86.4794392 104.454717,84.4779219 C105.287502,82.4764047 106.141825,80.4223083 107.017649,78.3121272 C107.893509,76.2019462 108.747831,74.1723867 109.580616,72.2199435 C110.413437,70.2675003 111.192378,68.462279 111.921065,66.8042796 C112.646162,65.1462802 113.27434,63.7441666 113.801974,62.5979387 C114.074783,62.0370932 114.300927,61.5113006 114.480407,61.0240661 C114.659886,60.5368316 114.749626,60.0706289 114.749626,59.6324683 C114.749626,58.7070733 114.480407,58.0340588 113.941968,57.6204353 C113.40353,57.2068118 112.807658,57 112.154352,57 C111.501047,57 110.851331,57.1962959 110.208794,57.5853824 C109.562668,57.974469 109.052946,58.6474835 108.67245,59.5974155 L99.0882441,83.2019985 C98.4529225,84.76185 97.7565061,86.4829444 96.9991385,88.3617767 C96.2381095,90.240609 95.4915106,92.1299571 94.7520191,94.0333264 C94.3435238,95.0441101 93.9919593,96.1529716 93.6937362,97.3562305 C93.4304756,97.5693167 93.1670356,97.7738851 92.9034161,97.9697604 C91.8373078,98.7619546 90.8214538,99.3788846 89.8486748,99.8170451 C88.8758959,100.255206 88.0646485,100.476039 87.4113431,100.476039 C86.4816392,100.476039 86.0185821,100.037878 86.0185821,99.1580517 C86.0185821,98.2081197 86.1621657,97.1775662 86.4457433,96.0663911 C86.7329106,94.9552161 87.08828,93.8230093 87.5226204,92.6627603 C87.9533712,91.5060165 88.4235716,90.3632939 88.9297398,89.241603 C89.4358361,88.1199121 89.9061083,87.0647865 90.3368591,86.0763315 C90.7711995,85.0878414 91.126569,84.20798 91.4137362,83.4403579 C91.7009034,82.6727006 91.8408615,82.0662865 91.8408615,81.628126 C91.8408615,80.8499529 91.6183069,80.1769384 91.1767873,79.6160929 C90.7353036,79.0552475 90.1322525,78.7748247 89.374813,78.7748247 C88.6784684,78.7748247 88.0969548,79.0447316 87.6338618,79.5810401 C87.167251,80.1173485 86.7580377,80.7868578 86.3990787,81.5930731 C86.0401197,82.3992885 85.7062878,83.2791148 85.4011726,84.2290468 C85.0960574,85.1789788 84.7442776,86.0693209 84.3422435,86.9000732 C83.7750882,88.1444491 83.0607598,89.5149801 82.2064373,91.0152417 C81.3521149,92.5190436 80.3972839,93.9211573 79.3419444,95.2251229 C78.2866048,96.5290886 77.137936,97.6227022 75.8923482,98.4990232 C74.6467245,99.3788846 73.3401137,99.8170451 71.9689261,99.8170451 C71.4843314,99.8170451 71.1361053,99.631265 70.9243195,99.2667155 C70.7125337,98.8986607 70.6084355,98.495553 70.6084355,98.0573925 C70.6515106,97.0093125 70.8309901,95.92965 71.1468741,94.81851 C71.462758,93.7108402 71.8432546,92.6171565 72.2847742,91.5445747 C72.7262937,90.4719577 73.2073347,89.4343936 73.7241998,88.4353877 C74.2411367,87.4328764 74.7329106,86.5004709 75.1959318,85.6346657 C75.6590248,84.7688605 76.0646126,84.0012033 76.4128388,83.3281888 C76.7645827,82.6551742 76.9907269,82.1153605 77.0948609,81.6982317 C77.1594376,81.480904 77.1917439,81.2495553 77.1917439,81.0041854 C77.1917439,80.6361306 77.1055938,80.3136444 76.936883,80.0332217 C76.7681723,79.752799 76.5456177,79.5214502 76.2728089,79.3391755 C75.9964104,79.1569007 75.702064,79.0236999 75.3861801,78.9360678 C75.0667066,78.851941 74.7615914,78.8098776 74.467245,78.8098776 C73.792402,78.8098776 73.1678133,79.0096788 72.5862997,79.4127864 C72.0083757,79.8158941 71.4950643,80.4818981 71.0535447,81.4072931 C69.3269518,84.923093 67.9880347,87.9095951 67.0367933,90.3737747 C66.0891415,92.8380245 65.3855818,94.8430119 64.9332934,96.3923825 C64.4774155,97.9417181 64.2081962,99.0774302 64.1256357,99.7960134 C64.0430751,100.514597 64,100.886157 64,100.910694 C64,101.958774 64.1471732,102.831589 64.4415196,103.525636 C64.735866,104.223187 65.1271313,104.777022 65.611726,105.190646 C66.0963207,105.604269 66.6598863,105.895208 67.302423,106.066967 C67.9449596,106.238726 68.616213,106.322852 69.3125935,106.322852 C70.8525277,106.322852 72.277595,106.073977 73.5842058,105.572722 C74.8908166,105.074971 76.0718277,104.422988 77.1271313,103.616773 C78.1824708,102.810558 79.1229794,101.920216 79.9449596,100.945747 C80.7669758,99.9712776 81.4525875,99.0073245 82.0017948,98.0538872 C81.6643733,99.5401277 81.4956626,100.847599 81.4956626,101.96929 C81.4956626,103.557183 81.8115465,104.678874 82.4433144,105.337868 C83.0786719,105.996861 83.900688,106.326358 84.9129524,106.326358 C85.9252169,106.326358 87.063117,106.052945 88.3302782,105.502616 C89.593778,104.952286 90.8824409,104.226692 92.1890876,103.325834 C92.5622973,103.068477 92.9325277,102.800182 93.2999581,102.521687 C93.3331977,102.744623 93.3740473,102.963809 93.4238708,103.178613 C93.5710799,103.813069 93.8187257,104.363399 94.1669159,104.826096 C94.5151062,105.288759 94.9781633,105.653343 95.5596769,105.92325 C96.1411905,106.193157 96.8626982,106.326358 97.7277894,106.326358 C98.9949147,106.326358 100.297936,106.035419 101.636853,105.450037 C102.97577,104.861149 104.325456,104.075965 105.685911,103.087475 C107.046366,102.09895 108.41041,100.959733 109.781633,99.6663179 C109.852241,99.5997175 109.922704,99.5321006 109.993276,99.4651496 C109.772875,99.9640918 109.549746,100.464366 109.322166,100.966778 C108.238109,103.371403 107.103799,105.797025 105.922824,108.250724 C104.741849,110.700952 103.578821,113.14764 102.440921,115.587318 C102.272211,116.028984 102.089141,116.484671 101.888124,116.961355 C101.687107,117.434568 101.49327,117.921837 101.303021,118.423093 C101.116363,118.920843 100.954831,119.42911 100.829195,119.940846 C100.70356,120.452653 100.638947,120.953908 100.638947,121.441143 C100.638947,122.440149 100.886629,123.116668 101.381992,123.470702 C101.880945,123.821231 102.505534,124 103.266527,124 C103.85522,124 104.390069,123.87381 104.863895,123.617924 C105.34131,123.362038 105.761292,123.022026 106.13102,122.594381 C106.500748,122.166736 106.827401,121.672491 107.110978,121.111646 C107.394556,120.547295 107.642238,119.951397 107.854023,119.31694 C107.918636,119.096108 108.065809,118.682484 108.299133,118.072565 C108.532456,117.462645 108.801675,116.758083 109.10679,115.951868 C109.411905,115.145652 109.738558,114.293868 110.086748,113.389505 C110.431349,112.485142 110.765181,111.626347 111.081065,110.809581 C111.400538,109.98938 111.676937,109.277772 111.921029,108.667887 C112.165121,108.057933 112.337421,107.644344 112.445109,107.423512 C112.52767,107.251718 112.671253,106.943288 112.87227,106.491071 C113.073287,106.035384 113.299432,105.527118 113.554293,104.952286 C113.805564,104.380925 114.085552,103.771006 114.390667,103.122528 C114.699372,102.477556 114.986539,101.85011 115.262937,101.240155 C115.535746,100.630271 115.787018,100.079941 116.020341,99.5926719 C116.253664,99.1054724 116.433144,98.7269017 116.55878,98.4569949 C116.978762,97.6017056 117.492073,96.6693 118.091535,95.6562729 C118.690996,94.6432458 119.35507,93.6407345 120.083757,92.6382233 C120.812444,91.635677 121.591385,90.6752642 122.42417,89.7463639 C123.256955,88.8174636 124.111277,87.9937219 124.987137,87.2751386 C125.859408,86.5565554 126.746036,85.9851941 127.643434,85.5575494 C128.540832,85.1299048 129.409512,84.9160825 130.253066,84.9160825 C130.737661,84.9160825 131.085851,85.0002093 131.297637,85.1719682 C131.505833,85.3402218 131.613521,85.5715706 131.613521,85.8660144 C131.613521,86.3567542 131.35866,86.9877053 130.852528,87.7693837 C130.346395,88.551062 129.707448,89.4098566 128.939276,90.3492728 C128.167514,91.2886889 127.33114,92.2841896 126.422973,93.3322695 C125.514807,94.3803495 124.660485,95.4144083 123.860006,96.4414565 C123.059527,97.4685048 122.373916,98.4569949 121.803171,99.4069269 C121.236016,100.356859 120.905773,101.198127 120.823213,101.930731 C120.801675,102.053416 120.790906,102.158575 120.790906,102.242702 L120.790906,102.516114 C120.790906,103.711416 121.228836,104.650832 122.104696,105.334362 C122.980556,106.014387 124.218965,106.357905 125.823512,106.357905 C127.532157,106.357905 129.136704,106.04243 130.633563,105.407973 C132.130422,104.773517 133.663177,103.879669 135.235417,102.71942 C136.807658,101.559171 138.476817,100.174584 140.250075,98.5656587 C142.019743,96.9567333 144.033503,95.176049 146.291355,93.2236057 C146.8621,92.7819399 147.289261,92.2351156 147.572875,91.5761222 C147.860042,90.9171288 148,90.2721565 148,89.6377001 C148,89.0523177 147.885133,88.5580726 147.65181,88.1549649 M68.1954474,64.3101815 C68.7318158,63.6673244 69,62.7900552 69,61.6783741 C69,61.2095501 68.9499032,60.7087609 68.8569684,60.1760063 C68.7639979,59.6432518 68.5386874,59.1176006 68.1811085,58.5990529 C66.6256402,56.2762431 64.9557823,54.5927388 63.1714635,53.5556433 C61.3871088,52.5185478 59.5384615,52 57.6254143,52 C55.966248,52 54.2892029,52.3587214 52.5978545,53.0761642 C50.9065062,53.7936069 49.229461,54.7880821 47.5702948,56.0595896 C45.9111286,57.3310971 44.2948718,58.8512234 42.7179487,60.6199684 C41.1410256,62.3887135 39.6570731,64.3243883 38.2589395,66.4234412 C36.8608059,68.5224941 35.5699459,70.7529597 34.3827839,73.1148382 C33.1956218,75.4767167 32.1514914,77.8918706 31.2468167,80.3638516 C30.342142,82.832281 29.612681,85.3184688 29.0548578,87.8153118 C28.5006105,90.3121902 28.1573347,92.7486188 28.0321821,95.1211523 C28.0107274,95.2703236 28,95.4159787 28,95.5651144 L28,96.0481807 C28,97.3587214 28.1680621,98.6692976 28.5041863,99.9799092 C28.8403105,101.29045 29.3552241,102.466097 30.0489273,103.503157 C30.7426304,104.540253 31.6186988,105.382005 32.6807082,106.024862 C33.7427176,106.664167 35.008547,106.987407 36.4781964,106.987407 C37.758329,106.987407 39.0920984,106.678374 40.4795046,106.060379 C41.8669109,105.445935 43.2435897,104.646803 44.6095413,103.670087 C45.971917,102.69337 47.3092622,101.595931 48.6108495,100.370596 C49.9160126,99.1452605 51.1210535,97.9163378 52.2366998,96.6803473 C51.8576661,97.8417877 51.4321472,99.1594317 50.960143,100.62987 C50.4881388,102.103824 50.044741,103.520951 49.637101,104.895422 C49.229461,106.269929 48.8754579,107.498816 48.5822432,108.585671 C48.2890284,109.676042 48.1316937,110.418311 48.110239,110.812585 C48.0887842,111.007928 48.0780569,111.192616 48.0780569,111.366614 L48.0780569,111.885197 C48.0780569,113.071429 48.2318158,113.888319 48.5357579,114.332281 C48.8397,114.776243 49.3295831,115 50.0018315,115 C50.3987441,115 50.7885051,114.857932 51.1675388,114.573796 C51.5465725,114.289661 51.893424,113.930975 52.2080935,113.497632 C52.522763,113.064325 52.7945229,112.609708 53.0269492,112.126713 C53.2593755,111.643646 53.4274376,111.203272 53.5311355,110.808998 C53.574045,110.684688 53.6884703,110.290485 53.8779871,109.622766 C54.0675039,108.95146 54.303506,108.12395 54.5859934,107.136579 C54.8684807,106.149207 55.1903018,105.041077 55.5478807,103.819258 C55.9054596,102.593923 56.2773417,101.347313 56.6671027,100.072218 C57.053288,98.8007459 57.4323216,97.550513 57.8006279,96.3287648 C58.1653585,95.1069811 58.5086342,93.9988161 58.8233037,93.0114799 C59.1379731,92.0241081 59.4061573,91.2036661 59.6278563,90.5466022 C59.8495552,89.8895383 59.9997384,89.5024033 60.0855573,89.3780939 L60.0855573,89.3780584 C60.4610152,88.2876875 60.8507405,87.2434886 61.2440773,86.2490134 C61.6446014,85.2509866 62.0057204,84.2529597 62.3311172,83.265588 C62.656514,82.2782163 62.9246982,81.2659826 63.1356698,80.2253354 C63.3466414,79.1846882 63.450375,78.0730071 63.450375,76.8867403 C63.450375,76.4427782 63.382435,76.0520916 63.2465193,75.718232 C63.110675,75.3843725 62.9283098,75.1108919 62.6958835,74.9013418 C62.467033,74.6882399 62.2023888,74.535517 61.9092098,74.4360695 C61.6124193,74.3366219 61.3192046,74.2868982 61.0259899,74.2868982 C60.4181057,74.2868982 59.8244889,74.4857932 59.2452468,74.8800316 C58.669509,75.2778216 58.2011163,75.9455406 57.8435374,76.8831886 L54.9113902,85.5955012 C54.5573513,86.3378058 54.0209829,87.2079716 53.305825,88.2095501 C52.5942787,89.2111287 51.7718472,90.2553275 50.8492936,91.3421468 C49.9267042,92.4289661 48.9290947,93.5051302 47.8563579,94.5670876 C46.7836211,95.629045 45.7180359,96.5808998 44.6560265,97.4226519 C43.5975571,98.2644041 42.5713414,98.9427782 41.5844235,99.461326 C40.5975057,99.9798737 39.7142857,100.239148 38.9383394,100.239148 C38.2446363,100.239148 37.67251,100.047356 37.2219606,99.6637372 C36.7677996,99.2837411 36.4102207,98.7935714 36.1492238,98.2004736 C35.8846154,97.6073402 35.7094017,96.9431728 35.6128554,96.215075 C35.5162733,95.4869771 35.4698238,94.7766377 35.4698238,94.0840568 C35.4698238,92.0063141 35.8095238,89.6621942 36.4924996,87.0552486 C37.1754753,84.4483031 38.0944532,81.8022889 39.2494331,79.1207577 C40.404413,76.4392265 41.7346067,73.8180742 43.2364382,71.2608524 C44.7382697,68.7000789 46.311617,66.4269929 47.9493284,64.4380426 C49.5870042,62.4490923 51.2426304,60.847277 52.9124882,59.6361484 C54.5824176,58.4250197 56.1557649,57.8176796 57.6254143,57.8176796 C58.5694226,57.8176796 59.4490668,58.0805051 60.2571952,58.6132597 C61.0652878,59.1460142 61.8055119,60.0055249 62.4777246,61.1917916 C63.1928824,62.5023678 63.8365245,63.5110497 64.4158381,64.2142857 C64.9915402,64.9210734 65.6173033,65.2726914 66.2895517,65.2726914 C67.0225885,65.2726914 67.659079,64.9530387 68.1954474,64.3101815" id="gulp-logo" fill="#FFFFFF"></path>
        </g>
    </g>
</svg>
